<svg width="108" height="124" viewBox="0 0 108 124" fill="none" xmlns="http://www.w3.org/2000/svg">
<path d="M44.9494 0.187366C44.9494 0.979473 46.7916 3.55381 49.0431 5.93013L53.3414 10.0887L43.5166 12.267C38.1949 13.4551 30.8264 16.0295 27.3468 17.8117C15.4752 23.7525 1.76157 42.367 1.96625 52.2683C2.17093 54.2485 3.80839 51.6742 5.65052 46.7235C12.8144 27.911 30.0077 14.6433 47.2009 14.4453C52.932 14.2472 57.2303 13.2571 57.2303 12.0689C57.2303 11.0788 54.5695 7.51434 51.0899 4.34592C47.815 1.17749 44.9494 -0.60474 44.9494 0.187366Z" fill="white"/>
<path d="M48.0197 19.1978C45.9729 21.3761 45.3589 23.1583 46.3823 23.1583C49.0431 23.1583 54.1602 17.4156 52.7274 16.2274C52.1134 15.6333 50.0665 17.0195 48.0197 19.1978Z" fill="white"/>
<path d="M88.1373 26.3267C99.3948 37.8123 101.442 41.3767 104.512 54.6445C106.354 62.7636 105.945 66.7241 103.284 75.8333C97.7573 94.2498 76.4704 112.27 60.3006 112.27H54.5695L59.2772 107.32C61.938 104.547 63.1661 102.369 62.1427 102.369C60.9146 102.369 57.6397 104.943 54.5695 107.914L49.0431 113.458L56.6163 120.389C60.9146 123.954 62.3474 124.746 59.6865 121.973C57.2304 119.201 55.1835 116.429 55.1835 115.835C55.1835 115.241 58.8678 114.25 63.5755 113.656C82.6109 111.28 102.056 93.2596 106.559 73.655C111.062 54.4465 102.67 33.2577 85.8858 21.5741C79.336 17.0195 79.5407 17.4156 88.1373 26.3267Z" fill="white"/>
<path d="M19.7736 35.436C12.4051 45.1393 10.1536 49.8919 10.3582 56.2288C10.3582 60.5854 10.9723 59.5952 13.0191 52.2682C14.6566 46.5255 18.5455 39.9906 22.6392 35.8321C26.3234 32.0696 28.3702 29.0992 26.9375 29.0992C25.7094 29.0992 22.4345 32.0696 19.7736 35.436Z" fill="white"/>
<path d="M56.207 40.9808C35.1248 48.1097 29.803 53.8525 31.4405 66.5262C33.4873 80.586 33.4873 85.1406 31.8498 89.4972C31.0311 91.6755 33.0779 88.5071 36.7622 82.5663C40.2418 76.6255 44.5401 70.2887 46.1776 68.7044C48.0197 66.9222 47.4057 68.9025 44.9495 73.061C42.4933 77.2196 41.0605 81.3781 41.8793 82.5663C42.4933 83.5564 47.815 84.5466 53.5461 84.5466C62.5521 84.5466 64.5989 83.7544 70.9441 77.6156L78.1079 70.6847L77.2892 52.8623C76.8798 42.565 75.8564 35.04 74.6283 35.238C73.6049 35.436 65.213 38.0104 56.207 40.9808ZM69.3066 69.4966C67.0551 74.2492 59.6866 78.6058 54.1602 78.6058C48.6338 78.6058 50.8853 75.2393 57.0257 74.0512C60.5053 73.2591 64.1896 71.0808 65.4177 68.7044C68.4879 62.9617 71.9675 63.7538 69.3066 69.4966Z" fill="white"/>
<path d="M0.328796 62.7636C0.328796 66.5261 0.73816 68.1103 1.35221 66.1301C1.76157 64.3478 1.76157 61.1794 1.35221 59.1992C0.73816 57.4169 0.328796 59.0011 0.328796 62.7636Z" fill="white"/>
<path d="M96.3246 67.1203C96.1199 75.0413 93.0497 81.3782 85.8859 89.2992C82.2016 93.2597 80.3595 96.4282 81.5875 96.4282C88.1374 96.4282 100.418 71.4768 97.5527 64.3479C96.9387 62.9617 96.3246 64.1499 96.3246 67.1203Z" fill="white"/>
<path d="M2.171 74.6452C1.96632 82.7643 15.4753 101.577 25.3 106.725C27.5515 107.914 24.4813 104.151 18.7502 98.4084C11.5864 91.4774 7.08336 84.9426 5.24123 78.8037C2.98973 72.2689 2.171 71.0807 2.171 74.6452Z" fill="white"/>
<path d="M10.3583 73.8532C10.3583 76.0315 10.9723 76.6256 11.5864 75.0414C12.2004 73.6552 11.9957 71.8729 11.3817 71.2789C10.7676 70.4868 10.1536 71.6749 10.3583 73.8532Z" fill="white"/>
</svg>
