<svg width="268" height="174" viewBox="0 0 268 174" fill="none" xmlns="http://www.w3.org/2000/svg">
<path d="M128.949 0.187366C128.949 0.979473 130.792 3.55381 133.043 5.93013L137.341 10.0887L127.517 12.267C122.195 13.4551 114.826 16.0295 111.347 17.8117C99.4752 23.7525 85.7616 42.367 85.9663 52.2683C86.1709 54.2485 87.8084 51.6742 89.6505 46.7235C96.8144 27.911 114.008 14.6433 131.201 14.4453C136.932 14.2472 141.23 13.2571 141.23 12.0689C141.23 11.0788 138.569 7.51434 135.09 4.34592C131.815 1.17749 128.949 -0.60474 128.949 0.187366Z" fill="white"/>
<path d="M132.02 19.1978C129.973 21.3761 129.359 23.1583 130.382 23.1583C133.043 23.1583 138.16 17.4156 136.727 16.2274C136.113 15.6333 134.067 17.0195 132.02 19.1978Z" fill="white"/>
<path d="M172.137 26.3267C183.395 37.8123 185.442 41.3767 188.512 54.6445C190.354 62.7636 189.945 66.7241 187.284 75.8333C181.757 94.2498 160.47 112.27 144.301 112.27H138.569L143.277 107.32C145.938 104.547 147.166 102.369 146.143 102.369C144.915 102.369 141.64 104.943 138.569 107.914L133.043 113.458L140.616 120.389C144.915 123.954 146.347 124.746 143.687 121.973C141.23 119.201 139.184 116.429 139.184 115.835C139.184 115.241 142.868 114.25 147.575 113.656C166.611 111.28 186.056 93.2596 190.559 73.655C195.062 54.4465 186.67 33.2577 169.886 21.5741C163.336 17.0195 163.541 17.4156 172.137 26.3267Z" fill="white"/>
<path d="M103.774 35.436C96.4051 45.1393 94.1536 49.8919 94.3582 56.2288C94.3582 60.5854 94.9723 59.5952 97.0191 52.2682C98.6566 46.5255 102.546 39.9906 106.639 35.8321C110.323 32.0696 112.37 29.0992 110.937 29.0992C109.709 29.0992 106.434 32.0696 103.774 35.436Z" fill="white"/>
<path d="M140.207 40.9808C119.125 48.1097 113.803 53.8525 115.44 66.5262C117.487 80.586 117.487 85.1406 115.85 89.4972C115.031 91.6755 117.078 88.5071 120.762 82.5663C124.242 76.6255 128.54 70.2887 130.178 68.7044C132.02 66.9222 131.406 68.9025 128.949 73.061C126.493 77.2196 125.06 81.3781 125.879 82.5663C126.493 83.5564 131.815 84.5466 137.546 84.5466C146.552 84.5466 148.599 83.7544 154.944 77.6156L162.108 70.6847L161.289 52.8623C160.88 42.565 159.856 35.04 158.628 35.238C157.605 35.436 149.213 38.0104 140.207 40.9808ZM153.307 69.4966C151.055 74.2492 143.687 78.6058 138.16 78.6058C132.634 78.6058 134.885 75.2393 141.026 74.0512C144.505 73.2591 148.19 71.0808 149.418 68.7044C152.488 62.9617 155.967 63.7538 153.307 69.4966Z" fill="white"/>
<path d="M84.3288 62.7636C84.3288 66.5261 84.7382 68.1103 85.3522 66.1301C85.7616 64.3478 85.7616 61.1794 85.3522 59.1992C84.7382 57.4169 84.3288 59.0011 84.3288 62.7636Z" fill="white"/>
<path d="M180.325 67.1203C180.12 75.0413 177.05 81.3782 169.886 89.2992C166.202 93.2597 164.359 96.4282 165.588 96.4282C172.137 96.4282 184.418 71.4768 181.553 64.3479C180.939 62.9617 180.325 64.1499 180.325 67.1203Z" fill="white"/>
<path d="M86.171 74.6452C85.9663 82.7643 99.4753 101.577 109.3 106.725C111.552 107.914 108.481 104.151 102.75 98.4084C95.5864 91.4774 91.0834 84.9426 89.2412 78.8037C86.9897 72.2689 86.171 71.0807 86.171 74.6452Z" fill="white"/>
<path d="M94.3583 73.8532C94.3583 76.0315 94.9723 76.6256 95.5864 75.0414C96.2004 73.6552 95.9957 71.8729 95.3817 71.2789C94.7676 70.4868 94.1536 71.6749 94.3583 73.8532Z" fill="white"/>
<path d="M1.43277 141.38C0.614045 141.974 0 148.707 0 155.836C0 171.084 2.2515 174.252 12.6903 173.262C19.0354 172.668 19.4448 172.272 20.0588 164.153C20.6729 156.43 20.2635 155.836 15.5558 155.836C12.6903 155.836 10.2341 156.628 10.2341 157.816C10.2341 158.806 11.2575 159.797 12.4856 159.797C15.3511 159.797 13.9184 168.114 10.8481 169.302C8.80132 169.896 8.18727 166.529 8.18727 157.024C8.18727 146.727 8.80132 143.954 11.2575 143.954C12.895 143.954 14.3277 145.341 14.3277 146.925C14.3277 148.509 15.7605 149.895 17.3979 149.895C19.2401 149.895 20.4682 148.113 20.4682 144.945C20.4682 140.39 19.6494 139.994 11.6669 139.994C6.7545 139.994 2.04682 140.588 1.43277 141.38Z" fill="white"/>
<path d="M27.018 156.232C27.4273 169.698 28.2461 172.668 31.1116 173.262C33.7725 173.658 34.5912 172.272 35.2052 166.331L35.8193 158.806L39.2989 166.133C41.141 170.292 44.2112 173.658 45.8487 173.658C49.7376 173.658 49.9423 171.084 46.8721 165.539C45.4393 162.569 45.4393 160.787 47.0768 158.806C48.3049 157.42 49.1236 152.668 48.7142 148.509L48.1002 140.984L37.2521 140.39L26.4039 139.796L27.018 156.232ZM40.9363 149.895C40.9363 153.856 39.9129 155.836 37.8661 155.836C35.8193 155.836 34.7959 153.856 34.7959 149.895C34.7959 145.935 35.8193 143.954 37.8661 143.954C39.9129 143.954 40.9363 145.935 40.9363 149.895Z" fill="white"/>
<path d="M55.264 156.826V173.658H64.4747C71.2292 173.658 73.6854 172.866 73.6854 170.688C73.6854 168.708 71.6386 167.718 67.7496 167.718C62.6326 167.718 62.0185 167.124 63.0419 162.767C63.656 159.599 65.2934 157.816 67.7496 157.816C73.276 157.816 72.662 154.252 67.1356 153.46C59.9717 152.47 60.7904 145.143 68.159 144.351C77.165 143.36 74.5041 139.994 64.4747 139.994H55.264V156.826Z" fill="white"/>
<path d="M79.8259 156.826V173.658H89.0365C95.791 173.658 98.2472 172.866 98.2472 170.688C98.2472 168.708 96.2004 167.718 91.9021 167.718C86.5804 167.718 85.7616 167.124 86.3757 163.163C86.785 160.391 88.6272 158.608 91.6974 158.212C94.1536 157.816 96.2004 156.826 96.2004 155.836C96.2004 154.846 94.1536 153.856 91.6974 153.46C84.5335 152.47 85.3523 145.143 92.7208 144.351C101.727 143.36 99.066 139.994 89.0365 139.994H79.8259V156.826Z" fill="white"/>
<path d="M104.388 156.628C104.388 170.094 105.002 173.658 107.253 173.658C109.505 173.658 110.528 170.688 110.938 163.163L111.552 152.866L115.236 163.163C121.172 179.599 124.856 177.223 124.856 156.826C124.856 143.558 124.242 139.994 121.99 139.994C119.739 139.994 118.715 142.766 118.306 149.301L117.692 158.806L114.417 149.895C112.575 144.945 109.709 140.786 107.867 140.39C104.797 139.796 104.388 141.974 104.388 156.628Z" fill="white"/>
<path d="M133.043 148.707C133.043 156.826 133.452 157.618 138.774 158.212C142.663 158.608 144.505 159.995 144.915 163.163C145.324 166.331 144.505 167.718 142.458 167.718C140.616 167.718 139.184 166.728 139.184 165.737C139.184 164.549 137.751 163.757 135.909 163.757C133.862 163.757 133.043 165.143 133.452 168.114C134.066 172.074 135.295 172.668 142.254 172.668H150.441V163.757C150.441 155.44 150.032 154.846 144.915 154.252C140.412 153.658 139.184 152.47 139.184 148.707C139.184 143.36 142.663 142.172 144.505 146.925C146.552 151.876 151.464 150.291 151.464 144.945C151.464 140.39 150.646 139.994 142.254 139.994H133.043V148.707Z" fill="white"/>
<path d="M157.81 152.866C157.4 168.708 159.856 173.658 167.839 173.658C179.301 173.658 180.12 172.668 180.12 155.638C180.12 141.38 179.711 139.994 176.026 139.994C172.342 139.994 171.933 141.38 171.933 153.856C171.933 164.945 171.319 167.718 168.862 167.718C166.406 167.718 165.792 164.945 165.792 153.856C165.792 141.578 165.383 139.994 161.903 139.994C158.628 139.994 158.014 141.776 157.81 152.866Z" fill="white"/>
<path d="M186.26 156.628C186.26 170.292 186.874 173.658 189.331 173.658C191.377 173.658 192.401 170.688 192.81 162.173C193.424 150.885 193.424 150.885 195.676 157.816C198.541 167.124 203.454 167.718 206.115 159.401C208.366 153.064 208.366 153.064 208.571 163.163C208.775 171.084 209.594 173.658 211.846 173.658C214.302 173.658 214.916 170.49 214.916 156.826C214.916 141.578 214.506 139.994 211.027 139.994C207.957 139.994 206.319 142.37 204.272 149.301L201.407 158.806L198.337 149.895C196.085 143.36 193.834 140.786 190.763 140.39C186.465 139.796 186.26 140.39 186.26 156.628Z" fill="white"/>
<path d="M223.103 156.826V173.658H232.314C239.068 173.658 241.524 172.866 241.524 170.688C241.524 168.708 239.478 167.718 235.179 167.718C229.858 167.718 229.039 167.124 229.653 163.163C230.062 160.391 231.904 158.608 234.975 158.212C241.115 157.222 240.706 153.856 234.361 153.856C230.267 153.856 229.244 152.866 229.244 148.905C229.244 144.747 230.267 143.954 235.384 143.954C238.864 143.954 241.524 142.964 241.524 141.974C241.524 140.786 237.431 139.994 232.314 139.994H223.103V156.826Z" fill="white"/>
<path d="M247.665 156.628C247.665 170.49 248.279 173.658 250.735 173.658C252.782 173.658 253.805 171.678 253.805 167.718C253.805 164.351 254.624 161.777 255.443 161.777C256.262 161.777 258.104 164.351 259.332 167.718C260.56 170.886 263.016 173.658 264.858 173.658C268.747 173.658 268.952 171.084 265.882 165.539C264.449 162.569 264.449 160.787 266.086 158.806C267.314 157.42 268.133 152.668 267.724 148.509C267.11 140.984 267.11 140.984 257.49 140.39L247.665 139.796V156.628ZM259.946 149.895C259.946 153.856 258.922 155.836 256.876 155.836C254.829 155.836 253.805 153.856 253.805 149.895C253.805 145.935 254.829 143.954 256.876 143.954C258.922 143.954 259.946 145.935 259.946 149.895Z" fill="white"/>
</svg>
