<svg width="343" height="380" viewBox="0 0 343 380" fill="none" xmlns="http://www.w3.org/2000/svg">
<rect x="41.5" y="13.5" width="258" height="358" rx="28.5" fill="#A47B5E" stroke="black" stroke-width="3"/>
<rect x="65" y="29" width="210" height="323" fill="white"/>
<rect x="97.5" y="1.5" width="146" height="43" fill="#F5F5F5" stroke="black" stroke-width="3"/>
<path d="M92.4252 74.2344C92.276 73.7159 92.0665 73.2578 91.7966 72.8601C91.5267 72.4553 91.1965 72.1143 90.8058 71.8374C90.4223 71.5533 89.982 71.3366 89.4848 71.1875C88.9948 71.0384 88.4514 70.9638 87.8548 70.9638C86.7398 70.9638 85.7597 71.2408 84.9145 71.7947C84.0764 72.3487 83.423 73.1548 82.9543 74.2131C82.4855 75.2642 82.2512 76.5497 82.2512 78.0696C82.2512 79.5895 82.482 80.8821 82.9436 81.9474C83.4053 83.0128 84.0587 83.826 84.9039 84.3871C85.749 84.9411 86.7469 85.218 87.8975 85.218C88.9415 85.218 89.8328 85.0334 90.5715 84.6641C91.3172 84.2876 91.8854 83.7585 92.276 83.0767C92.6737 82.3949 92.8726 81.5888 92.8726 80.6584L93.8101 80.7969H88.1851V77.3239H97.3151V80.0724C97.3151 81.9901 96.9102 83.6378 96.1006 85.0156C95.2909 86.3864 94.1759 87.4446 92.7554 88.1903C91.335 88.929 89.7085 89.2983 87.8762 89.2983C85.8307 89.2983 84.0338 88.8473 82.4855 87.9453C80.9372 87.0362 79.7298 85.7472 78.8634 84.0781C78.004 82.402 77.5743 80.4134 77.5743 78.1122C77.5743 76.3437 77.83 74.767 78.3414 73.3821C78.8598 71.9901 79.5843 70.8111 80.5146 69.8452C81.445 68.8793 82.5281 68.1442 83.7639 67.6399C84.9997 67.1357 86.3385 66.8835 87.7803 66.8835C89.0161 66.8835 90.1666 67.0646 91.232 67.4268C92.2973 67.782 93.2419 68.2862 94.0658 68.9396C94.8968 69.593 95.575 70.3707 96.1006 71.2727C96.6262 72.1676 96.9635 73.1548 97.1127 74.2344H92.4252ZM100.695 89V72.6364H105.095V75.4915H105.265C105.563 74.4759 106.064 73.7088 106.767 73.1903C107.47 72.6648 108.28 72.402 109.196 72.402C109.424 72.402 109.669 72.4162 109.931 72.4446C110.194 72.473 110.425 72.5121 110.624 72.5618V76.5888C110.411 76.5249 110.116 76.468 109.74 76.4183C109.363 76.3686 109.019 76.3438 108.706 76.3438C108.039 76.3438 107.442 76.4893 106.916 76.7805C106.398 77.0646 105.986 77.4624 105.681 77.9737C105.382 78.4851 105.233 79.0746 105.233 79.7422V89H100.695ZM119.666 89.3196C117.983 89.3196 116.534 88.9787 115.319 88.2969C114.112 87.608 113.182 86.6349 112.528 85.3778C111.875 84.1136 111.548 82.6186 111.548 80.8928C111.548 79.2095 111.875 77.7322 112.528 76.4609C113.182 75.1896 114.101 74.1989 115.287 73.4886C116.481 72.7784 117.88 72.4233 119.485 72.4233C120.564 72.4233 121.569 72.5973 122.5 72.9453C123.437 73.2862 124.254 73.8011 124.95 74.4901C125.653 75.179 126.2 76.0455 126.591 77.0895C126.981 78.1264 127.177 79.3409 127.177 80.733V81.9794H113.359V79.1669H122.905C122.905 78.5135 122.763 77.9347 122.478 77.4304C122.194 76.9261 121.8 76.532 121.296 76.2479C120.799 75.9567 120.22 75.8111 119.559 75.8111C118.87 75.8111 118.26 75.9709 117.727 76.2905C117.201 76.603 116.79 77.0256 116.491 77.5582C116.193 78.0838 116.04 78.6697 116.033 79.3161V81.9901C116.033 82.7997 116.182 83.4993 116.481 84.0888C116.786 84.6783 117.216 85.1328 117.77 85.4524C118.324 85.772 118.981 85.9318 119.741 85.9318C120.245 85.9318 120.706 85.8608 121.125 85.7188C121.544 85.5767 121.903 85.3636 122.201 85.0795C122.5 84.7955 122.727 84.4474 122.883 84.0355L127.081 84.3125C126.868 85.321 126.431 86.2017 125.77 86.9545C125.117 87.7003 124.272 88.2827 123.235 88.7017C122.205 89.1136 121.015 89.3196 119.666 89.3196ZM137.596 89.3196C135.912 89.3196 134.464 88.9787 133.249 88.2969C132.042 87.608 131.111 86.6349 130.458 85.3778C129.804 84.1136 129.478 82.6186 129.478 80.8928C129.478 79.2095 129.804 77.7322 130.458 76.4609C131.111 75.1896 132.031 74.1989 133.217 73.4886C134.41 72.7784 135.809 72.4233 137.415 72.4233C138.494 72.4233 139.499 72.5973 140.429 72.9453C141.367 73.2862 142.184 73.8011 142.88 74.4901C143.583 75.179 144.13 76.0455 144.52 77.0895C144.911 78.1264 145.106 79.3409 145.106 80.733V81.9794H131.289V79.1669H140.834C140.834 78.5135 140.692 77.9347 140.408 77.4304C140.124 76.9261 139.73 76.532 139.226 76.2479C138.728 75.9567 138.15 75.8111 137.489 75.8111C136.8 75.8111 136.189 75.9709 135.657 76.2905C135.131 76.603 134.719 77.0256 134.421 77.5582C134.123 78.0838 133.97 78.6697 133.963 79.3161V81.9901C133.963 82.7997 134.112 83.4993 134.41 84.0888C134.716 84.6783 135.145 85.1328 135.699 85.4524C136.253 85.772 136.91 85.9318 137.67 85.9318C138.174 85.9318 138.636 85.8608 139.055 85.7188C139.474 85.5767 139.833 85.3636 140.131 85.0795C140.429 84.7955 140.657 84.4474 140.813 84.0355L145.01 84.3125C144.797 85.321 144.361 86.2017 143.7 86.9545C143.047 87.7003 142.201 88.2827 141.165 88.7017C140.135 89.1136 138.945 89.3196 137.596 89.3196ZM152.606 79.5398V89H148.068V72.6364H152.393V75.5234H152.585C152.947 74.5717 153.554 73.8189 154.407 73.2649C155.259 72.7038 156.292 72.4233 157.507 72.4233C158.643 72.4233 159.634 72.6719 160.479 73.169C161.324 73.6662 161.981 74.3764 162.45 75.2997C162.919 76.2159 163.153 77.3097 163.153 78.581V89H158.615V79.3906C158.622 78.3892 158.366 77.608 157.848 77.0469C157.329 76.4787 156.616 76.1946 155.706 76.1946C155.096 76.1946 154.556 76.326 154.087 76.5888C153.625 76.8516 153.263 77.2351 153 77.7393C152.745 78.2365 152.613 78.8366 152.606 79.5398ZM180.345 77.3026L176.19 77.5582C176.119 77.2031 175.967 76.8835 175.732 76.5994C175.498 76.3082 175.189 76.0774 174.805 75.907C174.429 75.7294 173.978 75.6406 173.452 75.6406C172.749 75.6406 172.156 75.7898 171.673 76.0881C171.19 76.3793 170.949 76.7699 170.949 77.2599C170.949 77.6506 171.105 77.9808 171.418 78.2507C171.73 78.5206 172.266 78.7372 173.026 78.9006L175.988 79.4972C177.579 79.8239 178.765 80.3494 179.546 81.0739C180.327 81.7983 180.718 82.75 180.718 83.929C180.718 85.0014 180.402 85.9425 179.77 86.7521C179.145 87.5618 178.285 88.1939 177.192 88.6484C176.105 89.0959 174.851 89.3196 173.431 89.3196C171.265 89.3196 169.539 88.8686 168.253 87.9666C166.975 87.0575 166.226 85.8217 166.006 84.2592L170.469 84.0249C170.604 84.6854 170.931 85.1896 171.449 85.5376C171.968 85.8786 172.632 86.049 173.442 86.049C174.237 86.049 174.876 85.8963 175.359 85.5909C175.849 85.2784 176.098 84.8771 176.105 84.3871C176.098 83.9751 175.924 83.6378 175.583 83.375C175.242 83.1051 174.717 82.8991 174.006 82.7571L171.172 82.1925C169.574 81.8729 168.385 81.3189 167.604 80.5305C166.829 79.7422 166.442 78.7372 166.442 77.5156C166.442 76.4645 166.726 75.5589 167.295 74.799C167.87 74.0391 168.676 73.4531 169.713 73.0412C170.757 72.6293 171.979 72.4233 173.378 72.4233C175.445 72.4233 177.071 72.8601 178.257 73.7337C179.45 74.6072 180.146 75.7969 180.345 77.3026ZM194.069 82.0327V72.6364H198.608V89H194.25V86.0277H194.08C193.711 86.9865 193.096 87.7571 192.237 88.3395C191.385 88.9219 190.344 89.2131 189.116 89.2131C188.022 89.2131 187.059 88.9645 186.228 88.4673C185.397 87.9702 184.748 87.2635 184.279 86.3473C183.817 85.4311 183.583 84.3338 183.576 83.0554V72.6364H188.114V82.2457C188.121 83.2116 188.38 83.9751 188.892 84.5362C189.403 85.0973 190.089 85.3778 190.948 85.3778C191.495 85.3778 192.006 85.2536 192.482 85.005C192.958 84.7493 193.341 84.3729 193.633 83.8757C193.931 83.3786 194.076 82.7642 194.069 82.0327ZM202.238 89V72.6364H206.563V75.5234H206.755C207.096 74.5646 207.664 73.8082 208.459 73.2543C209.255 72.7003 210.207 72.4233 211.315 72.4233C212.437 72.4233 213.392 72.7038 214.18 73.2649C214.969 73.8189 215.494 74.5717 215.757 75.5234H215.927C216.261 74.5859 216.865 73.8366 217.739 73.2756C218.619 72.7074 219.66 72.4233 220.86 72.4233C222.387 72.4233 223.626 72.9098 224.578 73.8828C225.537 74.8487 226.016 76.2195 226.016 77.995V89H221.489V78.8899C221.489 77.9808 221.247 77.299 220.764 76.8445C220.281 76.3899 219.677 76.1626 218.953 76.1626C218.129 76.1626 217.486 76.4254 217.025 76.951C216.563 77.4695 216.332 78.1548 216.332 79.0071V89H211.932V78.794C211.932 77.9915 211.702 77.3523 211.24 76.8764C210.785 76.4006 210.185 76.1626 209.44 76.1626C208.935 76.1626 208.481 76.2905 208.076 76.5462C207.678 76.7947 207.362 77.1463 207.128 77.6009C206.893 78.0483 206.776 78.5739 206.776 79.1776V89H202.238ZM237.059 89.3196C235.375 89.3196 233.926 88.9787 232.712 88.2969C231.505 87.608 230.574 86.6349 229.921 85.3778C229.267 84.1136 228.941 82.6186 228.941 80.8928C228.941 79.2095 229.267 77.7322 229.921 76.4609C230.574 75.1896 231.494 74.1989 232.68 73.4886C233.873 72.7784 235.272 72.4233 236.877 72.4233C237.957 72.4233 238.962 72.5973 239.892 72.9453C240.83 73.2862 241.647 73.8011 242.343 74.4901C243.046 75.179 243.593 76.0455 243.983 77.0895C244.374 78.1264 244.569 79.3409 244.569 80.733V81.9794H230.752V79.1669H240.297C240.297 78.5135 240.155 77.9347 239.871 77.4304C239.587 76.9261 239.193 76.532 238.688 76.2479C238.191 75.9567 237.612 75.8111 236.952 75.8111C236.263 75.8111 235.652 75.9709 235.12 76.2905C234.594 76.603 234.182 77.0256 233.884 77.5582C233.585 78.0838 233.433 78.6697 233.426 79.3161V81.9901C233.426 82.7997 233.575 83.4993 233.873 84.0888C234.179 84.6783 234.608 85.1328 235.162 85.4524C235.716 85.772 236.373 85.9318 237.133 85.9318C237.637 85.9318 238.099 85.8608 238.518 85.7188C238.937 85.5767 239.296 85.3636 239.594 85.0795C239.892 84.7955 240.12 84.4474 240.276 84.0355L244.473 84.3125C244.26 85.321 243.823 86.2017 243.163 86.9545C242.509 87.7003 241.664 88.2827 240.627 88.7017C239.598 89.1136 238.408 89.3196 237.059 89.3196ZM247.531 89V72.6364H251.931V75.4915H252.101C252.399 74.4759 252.9 73.7088 253.603 73.1903C254.306 72.6648 255.116 72.402 256.032 72.402C256.259 72.402 256.505 72.4162 256.767 72.4446C257.03 72.473 257.261 72.5121 257.46 72.5618V76.5888C257.247 76.5249 256.952 76.468 256.576 76.4183C256.199 76.3686 255.855 76.3438 255.542 76.3438C254.875 76.3438 254.278 76.4893 253.752 76.7805C253.234 77.0646 252.822 77.4624 252.517 77.9737C252.218 78.4851 252.069 79.0746 252.069 79.7422V89H247.531ZM134.53 103.182H140.219L146.228 117.841H146.483L152.492 103.182H158.181V125H153.706V110.799H153.525L147.879 124.893H144.832L139.186 110.746H139.005V125H134.53V103.182ZM161.981 125V103.182H170.717C172.322 103.182 173.661 103.42 174.733 103.896C175.806 104.371 176.612 105.032 177.152 105.877C177.691 106.715 177.961 107.681 177.961 108.775C177.961 109.627 177.791 110.376 177.45 111.023C177.109 111.662 176.64 112.187 176.044 112.599C175.454 113.004 174.78 113.292 174.02 113.462V113.675C174.851 113.711 175.628 113.945 176.353 114.379C177.084 114.812 177.677 115.419 178.132 116.2C178.586 116.974 178.814 117.898 178.814 118.97C178.814 120.128 178.526 121.161 177.951 122.07C177.383 122.972 176.541 123.686 175.426 124.212C174.311 124.737 172.937 125 171.303 125H161.981ZM166.594 121.229H170.355C171.64 121.229 172.578 120.984 173.167 120.494C173.757 119.996 174.052 119.336 174.052 118.512C174.052 117.908 173.906 117.376 173.615 116.914C173.324 116.452 172.908 116.09 172.368 115.827C171.836 115.565 171.2 115.433 170.461 115.433H166.594V121.229ZM166.594 112.312H170.014C170.646 112.312 171.207 112.202 171.697 111.982C172.194 111.754 172.585 111.435 172.869 111.023C173.16 110.611 173.306 110.117 173.306 109.542C173.306 108.754 173.025 108.118 172.464 107.635C171.91 107.152 171.122 106.911 170.099 106.911H166.594V112.312ZM180.984 106.985V103.182H198.903V106.985H192.224V125H187.664V106.985H180.984ZM206.467 103.182V125H201.854V103.182H206.467Z" fill="#1C541B"/>
<path d="M162.274 322.362H159.617C159.542 321.927 159.402 321.541 159.198 321.205C158.995 320.864 158.741 320.575 158.438 320.338C158.135 320.101 157.79 319.924 157.401 319.805C157.018 319.682 156.604 319.621 156.159 319.621C155.368 319.621 154.667 319.82 154.056 320.217C153.445 320.61 152.967 321.188 152.622 321.95C152.276 322.708 152.103 323.634 152.103 324.727C152.103 325.84 152.276 326.777 152.622 327.54C152.972 328.297 153.45 328.87 154.056 329.259C154.667 329.642 155.365 329.834 156.151 329.834C156.587 329.834 156.994 329.777 157.373 329.663C157.757 329.545 158.1 329.372 158.403 329.145C158.711 328.918 158.969 328.638 159.177 328.307C159.39 327.975 159.537 327.597 159.617 327.17L162.274 327.185C162.174 327.876 161.959 328.525 161.627 329.131C161.301 329.737 160.872 330.272 160.342 330.736C159.811 331.195 159.191 331.555 158.481 331.815C157.771 332.071 156.982 332.199 156.116 332.199C154.838 332.199 153.696 331.903 152.693 331.311C151.689 330.719 150.898 329.865 150.32 328.747C149.743 327.63 149.454 326.29 149.454 324.727C149.454 323.16 149.745 321.82 150.328 320.707C150.91 319.59 151.703 318.735 152.707 318.143C153.711 317.552 154.847 317.256 156.116 317.256C156.926 317.256 157.678 317.369 158.374 317.597C159.07 317.824 159.691 318.158 160.235 318.598C160.78 319.034 161.227 319.569 161.578 320.203C161.933 320.833 162.165 321.553 162.274 322.362ZM167.144 317.455V332H164.573V317.455H167.144ZM169.788 332V321.091H172.359V332H169.788ZM171.08 319.543C170.673 319.543 170.323 319.408 170.029 319.138C169.736 318.863 169.589 318.534 169.589 318.151C169.589 317.762 169.736 317.433 170.029 317.163C170.323 316.889 170.673 316.751 171.08 316.751C171.492 316.751 171.843 316.889 172.132 317.163C172.425 317.433 172.572 317.762 172.572 318.151C172.572 318.534 172.425 318.863 172.132 319.138C171.843 319.408 171.492 319.543 171.08 319.543ZM179.761 332.213C178.672 332.213 177.737 331.974 176.956 331.496C176.179 331.018 175.58 330.357 175.159 329.514C174.742 328.667 174.534 327.691 174.534 326.588C174.534 325.48 174.747 324.502 175.173 323.655C175.599 322.803 176.201 322.14 176.977 321.666C177.758 321.188 178.682 320.949 179.747 320.949C180.632 320.949 181.416 321.112 182.098 321.439C182.784 321.761 183.331 322.218 183.738 322.81C184.146 323.397 184.378 324.083 184.434 324.869H181.977C181.878 324.344 181.641 323.906 181.267 323.555C180.898 323.2 180.403 323.023 179.782 323.023C179.257 323.023 178.795 323.165 178.398 323.449C178 323.728 177.69 324.131 177.467 324.656C177.249 325.182 177.14 325.812 177.14 326.545C177.14 327.289 177.249 327.928 177.467 328.463C177.685 328.993 177.99 329.403 178.383 329.692C178.781 329.976 179.247 330.118 179.782 330.118C180.161 330.118 180.5 330.047 180.798 329.905C181.101 329.758 181.354 329.547 181.558 329.273C181.762 328.998 181.901 328.664 181.977 328.271H184.434C184.373 329.043 184.146 329.727 183.753 330.324C183.36 330.916 182.825 331.38 182.148 331.716C181.47 332.047 180.675 332.213 179.761 332.213ZM188.889 328.577L188.882 325.473H189.294L193.215 321.091H196.219L191.396 326.46H190.864L188.889 328.577ZM186.546 332V317.455H189.117V332H186.546ZM193.392 332L189.841 327.036L191.574 325.224L196.468 332H193.392Z" fill="#1C541B"/>
<line x1="80" y1="148" x2="252" y2="148" stroke="black" stroke-width="4"/>
<line y1="-2" x2="172.508" y2="-2" transform="matrix(0.999992 0.00392819 -0.00390919 0.999992 79.6394 175.922)" stroke="black" stroke-width="4"/>
<line x1="80" y1="301" x2="253" y2="301" stroke="black" stroke-width="4"/>
<circle cx="166.5" cy="243.5" r="41.5" fill="white" stroke="black" stroke-width="4"/>
<path d="M159.171 258.897L153.097 250.945L153.096 250.944C150.472 247.516 148.945 245.536 148.017 244.378C147.55 243.796 147.255 243.447 147.058 243.233C146.946 243.112 146.885 243.056 146.863 243.036C146.605 242.889 146.474 242.857 146.409 242.848C146.357 242.841 146.266 242.836 146.057 242.905C145.334 243.15 144.521 244.246 144.627 245.743L144.627 245.745C144.629 245.776 144.631 245.805 144.633 245.833C144.659 246.216 144.663 246.269 144.703 246.389C144.755 246.543 144.892 246.838 145.353 247.522C146.231 248.828 147.997 251.14 151.641 255.91C151.824 256.149 152.011 256.395 152.204 256.647L152.205 256.648C154.76 260 156.638 262.439 157.913 264.063C158.552 264.876 159.032 265.477 159.369 265.882C159.538 266.086 159.661 266.23 159.745 266.323C159.751 266.329 159.756 266.335 159.761 266.341C160.083 266.515 160.496 266.54 160.949 266.308C160.961 266.295 160.974 266.281 160.99 266.264C161.103 266.139 161.276 265.937 161.53 265.628C162.035 265.014 162.812 264.034 163.986 262.525C166.331 259.511 170.228 254.432 176.632 246.055L176.632 246.055C183.17 237.509 187.054 232.414 189.333 229.381C190.473 227.862 191.203 226.872 191.659 226.228C191.888 225.906 192.038 225.684 192.134 225.534C192.183 225.456 192.209 225.411 192.22 225.392C192.316 225.119 192.389 224.702 192.395 224.232C192.401 223.734 192.33 223.33 192.245 223.109L192.243 223.102C191.97 222.378 191.641 222.002 191.307 221.789C191.056 221.632 190.931 221.593 190.868 221.58C190.817 221.569 190.729 221.559 190.524 221.6C190.522 221.6 190.506 221.604 190.477 221.614C190.436 221.628 190.385 221.647 190.328 221.671C190.272 221.694 190.221 221.718 190.176 221.739C190.161 221.756 190.144 221.776 190.124 221.798C189.996 221.944 189.808 222.169 189.545 222.492C189.021 223.137 188.236 224.131 187.111 225.576C184.863 228.464 181.283 233.121 175.779 240.314L175.779 240.315L161.554 258.898L160.362 260.456L159.171 258.897ZM159.817 266.4C159.827 266.41 159.826 266.408 159.814 266.397C159.815 266.398 159.816 266.399 159.817 266.4ZM160.896 266.363C160.884 266.373 160.883 266.375 160.893 266.365C160.894 266.365 160.895 266.364 160.896 266.363ZM190.249 221.661C190.258 221.653 190.262 221.648 190.262 221.649C190.261 221.649 190.257 221.653 190.249 221.661Z" fill="#4B7E56" stroke="black" stroke-width="3"/>
<line x1="80" y1="202" x2="123" y2="202" stroke="black" stroke-width="4"/>
<line x1="209" y1="202" x2="252" y2="202" stroke="black" stroke-width="4"/>
<line x1="217" y1="226" x2="252" y2="226" stroke="black" stroke-width="4"/>
<line y1="-2" x2="35.104" y2="-2" transform="matrix(0.999773 -0.0213234 0.0212203 0.999775 79.6463 229.801)" stroke="black" stroke-width="4"/>
<line x1="226" y1="249" x2="252" y2="249" stroke="black" stroke-width="4"/>
<line x1="80" y1="249" x2="106" y2="249" stroke="black" stroke-width="4"/>
<line x1="217" y1="273" x2="252" y2="273" stroke="black" stroke-width="4"/>
<line x1="80" y1="273" x2="115" y2="273" stroke="black" stroke-width="4"/>
</svg>
